<svg viewBox="0 0 52.667 45" xmlns="http://www.w3.org/2000/svg" xmlns:xlink="http://www.w3.org/1999/xlink" width="52.666992" height="45.000000" fill="none" customFrame="#000000">
	<g id="Сочетание 3">
		<circle id="Ellipse 8" cx="30.1669922" cy="22.5" r="22.5" fill="rgb(3,126,140)" />
		<path id="Vector" d="M0.0669436 21.4C-0.333056 26.2 1.06694 30.2 4.06694 33.8C7.06694 37.4 11.0669 39 15.8669 39L35.8669 39C36.8669 39 37.8669 38.6 38.6669 37.8C39.4669 37 39.8669 36 39.8669 35L39.8669 33.4C39.8669 32.2 39.6669 30.8 39.4669 29L23.0669 29C21.0669 29 19.4669 28.2 18.0669 26.8C16.6669 25.4 15.8669 23.6 15.8669 21.8C15.8669 18.6 17.2669 16.4 20.2669 15.2L29.8669 11C26.4669 8.60003 22.4669 7.20003 17.8669 7.00003C13.4669 6.60003 9.46694 8.00003 5.86694 10.8C2.26694 13.6 0.466944 17 0.0669436 21.4ZM19.8669 21.8C19.8669 22.6 20.2669 23.4 20.8669 24C21.4669 24.6 22.2669 25 23.0669 25L38.6669 25C37.4669 20.6 35.6669 17 33.0669 14.2L21.8669 18.8C20.4669 19.2 19.8669 20.2 19.8669 21.8Z" fill="rgb(18,18,20)" fill-rule="nonzero" />
	</g>
</svg>
