<svg viewBox="0 0 86.1667 70.5" xmlns="http://www.w3.org/2000/svg" xmlns:xlink="http://www.w3.org/1999/xlink" width="86.166656" height="70.500000" fill="none" customFrame="#000000">
	<path id="Vector" d="M7.8333 35.25C3.52497 35.25 -3.05176e-05 31.725 -3.05176e-05 27.4167L-3.05176e-05 7.83333C-3.05176e-05 3.525 3.52497 0 7.8333 0L39.1666 0C43.475 0 47 3.525 47 7.83333L47 27.4167C47 31.725 43.475 35.25 39.1666 35.25L31.3333 35.25L31.3333 47L19.5833 35.25L7.8333 35.25ZM78.3333 58.75C82.6416 58.75 86.1666 55.225 86.1666 50.9167L86.1666 31.3333C86.1666 27.025 82.6416 23.5 78.3333 23.5L54.8333 23.5L54.8333 27.4167C54.8333 36.0333 47.7833 43.0833 39.1666 43.0833L39.1666 50.9167C39.1666 55.225 42.6916 58.75 47 58.75L54.8333 58.75L54.8333 70.5L66.5833 58.75L78.3333 58.75Z" fill="rgb(18,18,20)" fill-rule="nonzero" />
</svg>
