<svg viewBox="0 0 22 22" xmlns="http://www.w3.org/2000/svg" xmlns:xlink="http://www.w3.org/1999/xlink" width="22.000000" height="22.000000" fill="none" customFrame="#000000">
	<g id="Group">
		<path id="Vector" d="M15.125 8.9375C15.125 8.75516 15.1974 8.5803 15.3264 8.45136C15.4553 8.32243 15.6302 8.25 15.8125 8.25L17.1875 8.25C17.3698 8.25 17.5447 8.32243 17.6736 8.45136C17.8026 8.5803 17.875 8.75516 17.875 8.9375L17.875 10.3125C17.875 10.4948 17.8026 10.6697 17.6736 10.7986C17.5447 10.9276 17.3698 11 17.1875 11L15.8125 11C15.6302 11 15.4553 10.9276 15.3264 10.7986C15.1974 10.6697 15.125 10.4948 15.125 10.3125L15.125 8.9375Z" fill="rgb(3,126,140)" fill-rule="nonzero" />
		<path id="Vector" d="M4.8125 0C4.99484 9.54098e-17 5.1697 0.0724328 5.29864 0.201364C5.42757 0.330295 5.5 0.505164 5.5 0.6875L5.5 1.375L16.5 1.375L16.5 0.6875C16.5 0.505164 16.5724 0.330295 16.7014 0.201364C16.8303 0.0724328 17.0052 2.09902e-16 17.1875 3.81639e-17C17.3698 1.57426e-16 17.5447 0.0724328 17.6736 0.201364C17.8026 0.330295 17.875 0.505164 17.875 0.6875L17.875 1.375L19.25 1.375C19.9793 1.375 20.6788 1.66473 21.1945 2.18046C21.7103 2.69618 22 3.39565 22 4.125L22 19.25C22 19.9793 21.7103 20.6788 21.1945 21.1945C20.6788 21.7103 19.9793 22 19.25 22L2.75 22C2.02065 22 1.32118 21.7103 0.805456 21.1945C0.289731 20.6788 4.00721e-16 19.9793 0 19.25L0 4.125C1.33574e-16 3.39565 0.289731 2.69618 0.805456 2.18046C1.32118 1.66473 2.02065 1.375 2.75 1.375L4.125 1.375L4.125 0.6875C4.125 0.505164 4.19743 0.330295 4.32636 0.201364C4.4553 0.0724328 4.63016 2.09902e-16 4.8125 3.81639e-17L4.8125 0ZM1.375 5.5L1.375 19.25C1.375 19.6147 1.51987 19.9644 1.77773 20.2223C2.03559 20.4801 2.38533 20.625 2.75 20.625L19.25 20.625C19.6147 20.625 19.9644 20.4801 20.2223 20.2223C20.4801 19.9644 20.625 19.6147 20.625 19.25L20.625 5.5L1.375 5.5Z" fill="rgb(3,126,140)" fill-rule="nonzero" />
	</g>
</svg>
