<svg viewBox="0 0 13 13" xmlns="http://www.w3.org/2000/svg" xmlns:xlink="http://www.w3.org/1999/xlink" width="13.000000" height="13.000000" fill="none">
	<rect id="bi:clock-fill" width="13.000000" height="13.000000" x="0.000000" y="0.000000" fill="rgb(255,255,255)" fill-opacity="0" />
	<g id="Group">
		<path id="Vector" d="M13 6.5C13 8.22391 12.3152 9.87721 11.0962 11.0962C9.87721 12.3152 8.22391 13 6.5 13C4.77609 13 3.12279 12.3152 1.90381 11.0962C0.68482 9.87721 9.47159e-16 8.22391 0 6.5C3.1572e-16 4.77609 0.68482 3.12279 1.90381 1.90381C3.12279 0.68482 4.77609 1.6237e-15 6.5 0C8.22391 1.12757e-15 9.87721 0.68482 11.0962 1.90381C12.3152 3.12279 13 4.77609 13 6.5ZM6.5 2.84375C6.5 2.73601 6.4572 2.63267 6.38101 2.55649C6.30483 2.4803 6.20149 2.4375 6.09375 2.4375C5.98601 2.4375 5.88267 2.4803 5.80649 2.55649C5.7303 2.63267 5.6875 2.73601 5.6875 2.84375L5.6875 7.3125C5.68752 7.38411 5.70647 7.45444 5.74243 7.51636C5.77839 7.57829 5.83007 7.62961 5.89225 7.66512L8.736 9.29012C8.82932 9.34056 8.93867 9.35249 9.04068 9.32337C9.14268 9.29425 9.22925 9.22639 9.28188 9.13429C9.33451 9.04218 9.34902 8.93315 9.32233 8.83048C9.29563 8.72782 9.22983 8.63967 9.139 8.58488L6.5 7.07688L6.5 2.84375Z" fill="rgb(3,126,140)" fill-rule="nonzero" />
	</g>
</svg>
