<svg viewBox="0 0 45 45" xmlns="http://www.w3.org/2000/svg" xmlns:xlink="http://www.w3.org/1999/xlink" width="45.000000" height="45.000000" fill="none" customFrame="#000000">
	<defs>
		<clipPath id="clipPath_1">
			<rect width="25.000000" height="25.000000" x="10.000000" y="10.000000" fill="rgb(255,255,255)" />
		</clipPath>
	</defs>
	<g id="имейл">
		<g id="Group 310">
			<circle id="Ellipse 24" cx="22.5" cy="22.5" r="22.5" fill="rgb(3,126,140)" />
		</g>
		<g id="email (2) 1" clip-path="url(#clipPath_1)" customFrame="url(#clipPath_1)">
			<rect id="email (2) 1" width="25.000000" height="25.000000" x="10.000000" y="10.000000" fill="rgb(255,255,255)" fill-opacity="0" />
			<g id="Group">
				<g id="Group">
					<path id="Vector" d="M32.8027 12.9785L12.1973 12.9785C10.9872 12.9785 10 13.9646 10 15.1758L10 29.8242C10 31.0312 10.9828 32.0215 12.1973 32.0215L32.8027 32.0215C34.0098 32.0215 35 31.0387 35 29.8242L35 15.1758C35 13.9688 34.0172 12.9785 32.8027 12.9785ZM32.4993 14.4434L22.5466 24.3961L12.5078 14.4434L32.4993 14.4434ZM11.4648 29.5209L11.4648 15.4721L18.5195 22.4663L11.4648 29.5209ZM12.5006 30.5566L19.5597 23.4976L22.0332 25.9498C22.3195 26.2337 22.7816 26.2328 23.0667 25.9476L25.4785 23.5358L32.4994 30.5566L12.5006 30.5566ZM33.5352 29.5208L26.5143 22.5L33.5352 15.4791L33.5352 29.5208Z" fill="rgb(255,255,255)" fill-rule="nonzero" />
				</g>
			</g>
		</g>
	</g>
</svg>
