<svg viewBox="0 0 45 45" xmlns="http://www.w3.org/2000/svg" xmlns:xlink="http://www.w3.org/1999/xlink" width="45.000000" height="45.000000" fill="none" customFrame="#000000">
	<defs>
		<clipPath id="clipPath_0">
			<rect width="23.000000" height="23.000000" x="11.000000" y="11.000000" fill="rgb(255,255,255)" />
		</clipPath>
	</defs>
	<g id="Group 310">
		<circle id="Ellipse 24" cx="22.5" cy="22.5" r="22.5" fill="rgb(3,126,140)" />
		<g id="home (1) 1" clip-path="url(#clipPath_0)" customFrame="url(#clipPath_0)">
			<rect id="home (1) 1" width="23.000000" height="23.000000" x="11.000000" y="11.000000" fill="rgb(255,255,255)" fill-opacity="0" />
			<path id="Vector" d="M33.4259 20.959C33.4252 20.9585 33.4247 20.9578 33.4241 20.9572L24.0419 11.5754C23.642 11.1753 23.1103 10.9551 22.5448 10.9551C21.9792 10.9551 21.4475 11.1753 21.0474 11.5754L11.6701 20.9525C11.667 20.9557 11.6637 20.959 11.6607 20.9621C10.8394 21.7881 10.8408 23.1282 11.6647 23.9521C12.0411 24.3287 12.5381 24.5466 13.0696 24.5696C13.0913 24.5717 13.1131 24.5728 13.135 24.5728L13.5088 24.5728L13.5088 31.477C13.5088 32.8435 14.6206 33.9551 15.987 33.9551L19.6577 33.9551C20.0298 33.9551 20.3315 33.6533 20.3315 33.2813L20.3315 27.8682C20.3315 27.2447 20.8388 26.7376 21.4623 26.7376L23.6273 26.7376C24.2508 26.7376 24.7579 27.2447 24.7579 27.8682L24.7579 33.2813C24.7579 33.6533 25.0595 33.9551 25.4317 33.9551L29.1023 33.9551C30.4689 33.9551 31.5806 32.8435 31.5806 31.477L31.5806 24.5728L31.9273 24.5728C32.4927 24.5728 33.0244 24.3525 33.4247 23.9523C34.2494 23.1272 34.2497 21.7846 33.4259 20.959ZM32.4716 22.9994C32.3262 23.1449 32.1328 23.2251 31.9273 23.2251L30.9067 23.2251C30.5346 23.2251 30.2329 23.5267 30.2329 23.8989L30.2329 31.477C30.2329 32.1003 29.7258 32.6075 29.1023 32.6075L26.1055 32.6075L26.1055 27.8682C26.1055 26.5018 24.9939 25.3899 23.6273 25.3899L21.4623 25.3899C20.0956 25.3899 18.9838 26.5018 18.9838 27.8682L18.9838 32.6075L15.987 32.6075C15.3637 32.6075 14.8564 32.1003 14.8564 31.477L14.8564 23.8989C14.8564 23.5267 14.5548 23.2251 14.1826 23.2251L13.1796 23.2251C13.1691 23.2244 13.1587 23.2239 13.148 23.2237C12.9473 23.2202 12.759 23.1405 12.6179 22.9993C12.3178 22.6992 12.3178 22.2108 12.6179 21.9106C12.6181 21.9106 12.6181 21.9104 12.6182 21.9102L12.6188 21.9097L22.0006 12.5282C22.1459 12.3828 22.3391 12.3027 22.5448 12.3027C22.7503 12.3027 22.9435 12.3828 23.0889 12.5282L32.4687 21.9078C32.4701 21.9092 32.4716 21.9106 32.473 21.912C32.7715 22.2126 32.771 22.6999 32.4716 22.9994Z" fill="rgb(255,255,255)" fill-rule="nonzero" />
		</g>
	</g>
</svg>
