<svg viewBox="0 0 41 41" xmlns="http://www.w3.org/2000/svg" xmlns:xlink="http://www.w3.org/1999/xlink" width="41.000000" height="41.000000" fill="none">
	<rect id="instagram" width="41.000000" height="41.000000" x="0.000000" y="0.000000" fill="rgb(255,255,255)" fill-opacity="0" />
	<g id="Group">
		<g id="Group">
			<path id="Vector" d="M20.529 26.3142C23.8798 26.3142 26.5961 23.6819 26.5961 20.4349C26.5961 17.1879 23.8798 14.5557 20.529 14.5557C17.1782 14.5557 14.4618 17.1879 14.4618 20.4349C14.4618 23.6819 17.1782 26.3142 20.529 26.3142Z" fill="rgb(18,18,20)" fill-rule="evenodd" />
			<path id="Vector" d="M29.9197 20.763C29.9197 25.7883 25.7153 29.8615 20.5289 29.8615C15.3426 29.8615 11.1382 25.7883 11.1382 20.763C11.1382 19.8625 11.2741 18.9926 11.5257 18.1709L8.75073 18.1709L8.75073 30.9331C8.75073 31.5942 9.29097 32.134 9.95158 32.134L30.9901 32.134C31.6512 32.134 32.1918 31.5942 32.1918 30.9331L32.1918 18.1709L29.5322 18.1709C29.7834 18.9926 29.9197 19.8625 29.9197 20.763Z" fill="rgb(18,18,20)" fill-rule="nonzero" />
			<path id="Vector" d="M27.4027 14.7267L30.8174 14.7267C31.5656 14.7267 32.1772 14.1152 32.1772 13.3669L32.1772 10.1112C32.1772 9.36252 31.5656 8.75098 30.8174 8.75098L27.4027 8.75098C26.654 8.75098 26.0425 9.36252 26.0425 10.1112L26.0425 13.3669C26.0421 14.1147 26.654 14.7267 27.4027 14.7267Z" fill="rgb(18,18,20)" fill-rule="nonzero" />
			<path id="Vector" d="M20.5 0C9.17813 0 0 9.17813 0 20.5C0 31.8219 9.17813 41 20.5 41C31.8219 41 41 31.8219 41 20.5C41 9.17813 31.8219 0 20.5 0ZM31.7283 35.6065L9.27208 35.6065C7.1384 35.6065 5.39396 34.0273 5.39396 31.7292L5.39396 9.27166C5.39396 6.97273 7.1384 5.39396 9.27208 5.39396L31.7283 5.39396C33.8616 5.39396 35.6065 6.97273 35.6065 9.27166L35.6065 31.7292C35.6065 34.0273 33.8612 35.6065 31.7283 35.6065Z" fill="rgb(18,18,20)" fill-rule="nonzero" />
		</g>
	</g>
</svg>
