<svg viewBox="0 0 16.0817 15.7485" xmlns="http://www.w3.org/2000/svg" xmlns:xlink="http://www.w3.org/1999/xlink" width="16.081665" height="15.748535" fill="none" customFrame="#000000">
	<path id="Vector" d="M6.68471 9.19662C7.67046 10.1966 8.8632 10.9687 10.1792 11.4586L11.9594 10.0419C12.0122 10.0055 12.0748 9.98609 12.1389 9.98609C12.203 9.98609 12.2655 10.0055 12.3183 10.0419L15.6239 12.1716C15.7494 12.2471 15.8556 12.3507 15.9342 12.4742C16.0128 12.5978 16.0615 12.7379 16.0766 12.8836C16.0918 13.0292 16.0728 13.1764 16.0213 13.3134C15.9697 13.4505 15.887 13.5737 15.7797 13.6733L14.2308 15.2033C14.009 15.4225 13.7364 15.5833 13.4373 15.6715C13.1382 15.7596 12.8219 15.7724 12.5167 15.7086C9.47186 15.0797 6.66541 13.6069 4.41804 11.4586C2.22055 9.28882 0.699892 6.52802 0.0405404 3.51106C-0.024595 3.21056 -0.0110003 2.89832 0.0800069 2.60462C0.171014 2.31091 0.336348 2.0457 0.559985 1.83467L2.16554 0.285783C2.2649 0.183683 2.38606 0.105383 2.51997 0.0567452C2.65387 0.00810765 2.79704 -0.00960663 2.93876 0.00492878C3.08048 0.0194642 3.21708 0.0658726 3.33832 0.140679C3.45956 0.215486 3.56231 0.316752 3.63887 0.436895L5.83943 3.69995C5.87739 3.75119 5.89787 3.81327 5.89787 3.87703C5.89787 3.9408 5.87739 4.00288 5.83943 4.05412L4.38971 5.79662C4.8929 7.08623 5.67686 8.24765 6.68471 9.19662Z" fill="rgb(255,255,255)" fill-rule="nonzero" />
</svg>
