<svg viewBox="0 0 11.3335 14.1667" xmlns="http://www.w3.org/2000/svg" xmlns:xlink="http://www.w3.org/1999/xlink" width="11.333496" height="14.166687" fill="none" customFrame="#000000">
	<path id="Vector" d="M5.66672 6.10352e-05C2.54227 6.10352e-05 5.76899e-05 2.54227 5.76899e-05 5.66319C-0.020484 10.2284 5.45139 14.0137 5.66672 14.1667C5.66672 14.1667 11.3539 10.2284 11.3334 5.66673C11.3334 2.54227 8.79118 6.10352e-05 5.66672 6.10352e-05ZM5.66672 8.50006C4.10131 8.50006 2.83339 7.23214 2.83339 5.66673C2.83339 4.10131 4.10131 2.83339 5.66672 2.83339C7.23214 2.83339 8.50006 4.10131 8.50006 5.66673C8.50006 7.23214 7.23214 8.50006 5.66672 8.50006Z" fill="rgb(3,126,140)" fill-rule="nonzero" />
</svg>
