<svg viewBox="0 0 636 311" xmlns="http://www.w3.org/2000/svg" xmlns:xlink="http://www.w3.org/1999/xlink" width="636.000000" height="311.000000" fill="none" clip-path="url(#clipPath_1)" customFrame="url(#clipPath_1)">
	<defs>
		<clipPath id="clipPath_1">
			<rect width="636.000000" height="311.000000" x="0.000000" y="0.000000" rx="9.000000" fill="rgb(255,255,255)" />
		</clipPath>
	</defs>
	<rect id="Frame 14" width="636.000000" height="311.000000" x="0.000000" y="0.000000" rx="9.000000" />
	<rect id="Rectangle 15" width="636.000000" height="311.000000" x="0.000000" y="0.000000" rx="9.000000" fill="rgb(243.83,243.83,243.83)" />
	<path id="Vector" d="M236.782 33.7272C261.246 42.746 283.688 53.8115 305.787 67.6629C327.167 81.0631 343.081 99.9942 364.297 113.651C406.31 140.694 487.256 137.593 491.827 187.415C496.164 234.693 417.945 243.003 378.59 269.447C355.53 284.941 326.958 290.659 307.968 310.952C277.612 343.392 281.149 422.114 236.782 420.988C191.765 419.845 209.028 325.189 167.649 307.39C116.843 285.536 34.7664 368.189 5.20473 321.376C-23.686 275.625 76.4159 239.288 91.8871 187.415C101.223 156.112 66.6495 124.85 73.355 92.8775C80.7703 57.5201 96.6362 15.3353 130.551 3.06032C165.81 -9.70142 201.599 20.7565 236.782 33.7272Z" fill="rgb(55.25,55.25,55.25)" fill-rule="evenodd" transform="matrix(-0.974286,-0.225315,0.225315,-0.974286,770.349,618.029)" />
</svg>
