<svg viewBox="0 0 42 42" xmlns="http://www.w3.org/2000/svg" xmlns:xlink="http://www.w3.org/1999/xlink" width="42.000000" height="42.000000" fill="none" customFrame="#000000">
	<defs>
		<clipPath id="clipPath_4">
			<rect width="30.000000" height="30.000000" x="6.000000" y="6.000000" fill="rgb(255,255,255)" />
		</clipPath>
	</defs>
	<g id="иконка">
		<circle id="Ellipse 11" cx="21" cy="21" r="21" fill="rgb(3,126,140)" />
		<g id="heroicons-solid:check" clip-path="url(#clipPath_4)" customFrame="url(#clipPath_4)">
			<rect id="heroicons-solid:check" width="30.000000" height="30.000000" x="6.000000" y="6.000000" />
			<g id="Group">
				<path id="Vector" d="M31.0605 13.9392C31.3417 14.2205 31.4997 14.6019 31.4997 14.9997C31.4997 15.3974 31.3417 15.7789 31.0605 16.0602L19.0605 28.0602C18.7792 28.3414 18.3977 28.4994 18 28.4994C17.6023 28.4994 17.2208 28.3414 16.9395 28.0602L10.9395 22.0602C10.6663 21.7773 10.5151 21.3984 10.5185 21.0051C10.5219 20.6118 10.6797 20.2356 10.9578 19.9575C11.2359 19.6793 11.6121 19.5216 12.0054 19.5182C12.3987 19.5148 12.7776 19.6659 13.0605 19.9392L18 24.8787L28.9395 13.9392C29.2208 13.658 29.6023 13.5 30 13.5C30.3977 13.5 30.7792 13.658 31.0605 13.9392Z" fill="rgb(255,255,255)" fill-rule="evenodd" />
			</g>
		</g>
	</g>
</svg>
